<?xml version="1.0" encoding="UTF-8"?>
<svg id="Layer_2" data-name="Layer 2" xmlns="http://www.w3.org/2000/svg" viewBox="0 0 28.46 17.47">
  <defs>
    <style>
      .cls-1 {
        fill: #fff;
      }
    </style>
  </defs>
  <g id="Layer_1-2" data-name="Layer 1">
    <g>
      <g>
        <path d="m1.35.38h25.76c.54,0,.97.43.97.97v1.8c0,.54-.44.97-.97.97H1.35c-.54,0-.97-.44-.97-.97v-1.79C.38.81.81.38,1.35.38Z"/>
        <path class="cls-1" d="m27.11.75c.33,0,.6.27.6.6v1.8c0,.33-.27.6-.6.6H1.35c-.33,0-.6-.27-.6-.6v-1.8c0-.33.27-.6.6-.6h25.76m0-.75H1.35C.6,0,0,.6,0,1.35v1.8c0,.74.6,1.35,1.35,1.35h25.76c.74,0,1.35-.6,1.35-1.35v-1.8c0-.74-.6-1.35-1.35-1.35h0Z"/>
      </g>
      <g>
        <path d="m1.35,6.87h25.76c.54,0,.97.44.97.97v1.8c0,.54-.44.97-.97.97H1.35c-.54,0-.97-.44-.97-.97v-1.8c0-.54.43-.97.97-.97Z"/>
        <path class="cls-1" d="m27.11,7.24c.33,0,.6.27.6.6v1.8c0,.33-.27.6-.6.6H1.35c-.33,0-.6-.27-.6-.6v-1.8c0-.33.27-.6.6-.6h25.76m0-.75H1.35c-.74,0-1.35.6-1.35,1.35v1.8c0,.74.6,1.35,1.35,1.35h25.76c.74,0,1.35-.6,1.35-1.35v-1.8c0-.74-.6-1.35-1.35-1.35h0Z"/>
      </g>
      <g>
        <rect x=".38" y="13.36" width="20.93" height="3.74" rx=".97" ry=".97"/>
        <path class="cls-1" d="m20.34,13.73c.33,0,.6.27.6.6v1.8c0,.33-.27.6-.6.6H1.35c-.33,0-.6-.27-.6-.6v-1.8c0-.33.27-.6.6-.6h18.99m0-.75H1.35c-.74,0-1.35.6-1.35,1.35v1.8c0,.74.6,1.35,1.35,1.35h18.99c.74,0,1.35-.6,1.35-1.35v-1.8c0-.74-.6-1.35-1.35-1.35h0Z"/>
      </g>
      <path d="m25.31,17.05l2.1-3.64c.11-.19-.03-.42-.24-.42h-4.2c-.22,0-.35.24-.24.42l2.1,3.64c.11.19.38.19.49,0Z"/>
    </g>
  </g>
</svg>