<?xml version="1.0" encoding="UTF-8"?>
<svg id="Layer_2" data-name="Layer 2" xmlns="http://www.w3.org/2000/svg" viewBox="0 0 19.93 19.93">
  <defs>
    <style>
      .cls-1 {
        fill: #fff;
      }
    </style>
  </defs>
  <g id="Layer_1-2" data-name="Layer 1">
    <g id="Buttons">
      <g id="Layer_2-2" data-name="Layer 2">
        <g id="Layer_1-2" data-name="Layer 1-2">
          <path id="Gear" class="cls-1" d="m18.52,7.5h-1.21s-.06-.02-.07-.05c-.1-.29-.22-.58-.36-.86-.01-.03,0-.06.01-.08l.86-.86c.55-.55.55-1.45,0-2l-1.48-1.48c-.26-.27-.62-.42-1-.41h0c-.37,0-.72.14-.99.4l-.87.87s-.05.03-.08.01c-.28-.14-.57-.25-.86-.35-.03-.01-.05-.04-.05-.07v-1.21c0-.78-.63-1.41-1.41-1.41h-2.09c-.78,0-1.41.63-1.42,1.42v1.21s-.02.06-.05.07c-.29.1-.58.22-.86.36-.03.01-.06,0-.08-.01l-.86-.86c-.26-.27-.63-.42-1-.41h0c-.38,0-.74.15-1,.41l-1.48,1.48c-.55.55-.55,1.45,0,2,0,0,0,0,0,0l.86.86s.03.06.01.08c-.14.28-.25.56-.35.86,0,.03-.04.05-.07.05h-1.21c-.78,0-1.41.63-1.42,1.42v2.09c0,.78.63,1.41,1.42,1.42h1.21s.06.02.07.05c.1.29.22.58.36.86.01.03,0,.06-.01.08l-.86.86c-.55.55-.55,1.43-.01,1.99l1.49,1.49c.55.55,1.45.55,2,0l.86-.86s.05-.03.08-.01c.28.14.57.25.86.36.03,0,.05.04.05.07v1.21c0,.78.63,1.41,1.42,1.42h2.09c.78,0,1.41-.63,1.42-1.42v-1.21s.02-.06.05-.07c.29-.1.58-.22.86-.36.03-.01.06,0,.08.01l.86.86c.55.55,1.45.55,2,0l1.48-1.48c.55-.55.55-1.45,0-2l-.86-.86s-.03-.05-.01-.08c.14-.28.25-.57.36-.86,0-.03.04-.05.07-.05h1.21c.78,0,1.41-.63,1.42-1.42v-2.09c0-.78-.63-1.41-1.41-1.41Zm-4.59,2.46h0c0,2.18-1.78,3.96-3.96,3.96h0c-2.18,0-3.96-1.78-3.96-3.96,0-2.19,1.77-3.96,3.96-3.96h0c2.18,0,3.96,1.78,3.96,3.96Z"/>
        </g>
      </g>
    </g>
  </g>
</svg>