<?xml version="1.0" encoding="UTF-8"?>
<svg id="Layer_2" data-name="Layer 2" xmlns="http://www.w3.org/2000/svg" viewBox="0 0 22.77 19.93">
  <defs>
    <style>
      .cls-1 {
        fill: #fff;
      }
    </style>
  </defs>
  <g id="Layer_1-2" data-name="Layer 1">
    <g id="Buttons">
      <g>
        <path class="cls-1" d="m22.77,15.84c-.16.19-.3.4-.49.56-1.32,1.11-2.65,2.22-3.98,3.32-.32.26-.65.29-.94.07-.22-.16-.29-.38-.29-.64,0-.61,0-1.22,0-1.82,0-.07,0-.14,0-.24-.37,0-.71,0-1.06,0-2.18-.01-3.87-.94-5.03-2.79-1.49-2.37-2.97-4.73-4.44-7.11-.63-1.01-1.52-1.52-2.71-1.5-1.19.01-2.39,0-3.58,0h-.25v-2.85h.23c1.22,0,2.45,0,3.67,0,2.18,0,3.86.94,5.03,2.79,1.47,2.35,2.95,4.69,4.4,7.05.66,1.06,1.57,1.6,2.82,1.55.3-.01.6,0,.93,0v-.86c0-.37,0-.74,0-1.11,0-.34.08-.64.41-.8.34-.17.63-.03.89.19.55.47,1.12.93,1.67,1.4.75.63,1.51,1.25,2.25,1.88.18.15.32.36.47.54v.36Z"/>
        <path class="cls-1" d="m22.77,4.45c-.16.19-.3.4-.49.56-1.3,1.1-2.62,2.19-3.93,3.28-.19.16-.4.28-.66.25-.37-.05-.61-.35-.61-.75,0-.61,0-1.22,0-1.82,0-.08,0-.16,0-.3-.66.05-1.31.04-1.94.16-.75.15-1.3.64-1.71,1.29-.27.44-.55.88-.82,1.32-.04.06-.08.12-.13.2-.44-.7-.87-1.39-1.3-2.07-.12-.2-.34-.41-.34-.61,0-.21.22-.42.36-.62,1.1-1.55,2.61-2.37,4.51-2.46.44-.02.89,0,1.37,0,0-.09,0-.17,0-.24,0-.59,0-1.19,0-1.78,0-.33.1-.6.41-.75.31-.15.59-.06.84.15,1.38,1.15,2.76,2.29,4.13,3.45.13.11.21.27.32.41v.36Z"/>
        <path class="cls-1" d="m7.44,11.31c.55.89,1.09,1.74,1.62,2.6.03.05.02.14,0,.19-1.14,1.93-2.83,2.96-5.09,2.99-1.31.01-2.62,0-3.95,0v-2.85h.23c1.22,0,2.45,0,3.67,0,1.14,0,2.01-.48,2.61-1.45.3-.48.6-.97.93-1.48Z"/>
      </g>
    </g>
  </g>
</svg>